<svg xmlns="http://www.w3.org/2000/svg" xmlns:xlink="http://www.w3.org/1999/xlink" xmlns:lucid="lucid" width="1760" height="1360"><g transform="translate(0 0)" lucid:page-tab-id="0_0"><path d="M0 0h1760v1360H0z" fill="#fff"/><path d="M453.15 76c0-4.42 3.58-8 8-8h836.75c4.4 0 8 3.58 8 8v25.16c0 4.4-3.6 8-8 8H461.15c-4.42 0-8-3.6-8-8z" stroke="#000" stroke-opacity="0" stroke-width="2" fill="#fff" fill-opacity="0"/><use xlink:href="#a" transform="matrix(1,0,0,1,457.1465527853429,71.99999999994924) translate(304.75074074074075 25.782777777777778)"/><use xlink:href="#b" transform="matrix(1,0,0,1,457.1465527853429,71.99999999994924) translate(362.8038271604938 25.782777777777778)"/><use xlink:href="#c" transform="matrix(1,0,0,1,457.1465527853429,71.99999999994924) translate(384.6556790123457 25.782777777777778)"/><use xlink:href="#d" transform="matrix(1,0,0,1,457.1465527853429,71.99999999994924) translate(480.51246913580246 25.782777777777778)"/><path d="M592.73 107.8H1174M592.76 107.8h-1.03M1173.97 107.8h1.03" stroke="#a9afb8" stroke-width="2" fill="none"/><path d="M453.15 117.16c0-4.42 3.58-8 8-8h837.7c4.42 0 8 3.58 8 8V120c0 4.42-3.58 8-8 8h-837.7c-4.42 0-8-3.58-8-8z" stroke="#000" stroke-opacity="0" stroke-width="2" fill="#fff" fill-opacity="0"/><use xlink:href="#e" transform="matrix(1,0,0,1,457.1465527853434,113.15522395684805) translate(276.1726028806585 14.917037037037037)"/><use xlink:href="#f" transform="matrix(1,0,0,1,457.1465527853434,113.15522395684805) translate(333.916121399177 14.917037037037037)"/><use xlink:href="#g" transform="matrix(1,0,0,1,457.1465527853434,113.15522395684805) translate(429.8578909465021 14.917037037037037)"/><use xlink:href="#h" transform="matrix(1,0,0,1,457.1465527853434,113.15522395684805) translate(442.3073765432099 14.917037037037037)"/><use xlink:href="#i" transform="matrix(1,0,0,1,457.1465527853434,113.15522395684805) translate(516.9618004115226 14.917037037037037)"/><use xlink:href="#j" transform="matrix(1,0,0,1,457.1465527853434,113.15522395684805) translate(542.4556275720165 14.917037037037037)"/><path d="M200 688c0-4.42 3.58-8 8-8h324c4.42 0 8 3.58 8 8v152c0 4.42-3.58 8-8 8H208c-4.42 0-8-3.58-8-8z" fill="#fff"/><path d="M200 680h340v40H200z" fill="#ccc"/><path d="M200 688c0-4.42 3.58-8 8-8h324c4.42 0 8 3.58 8 8v152c0 4.42-3.58 8-8 8H208c-4.42 0-8-3.58-8-8zM200 720h340M260 720v128M400 720v128" stroke="#333" fill="none"/><use xlink:href="#k" transform="matrix(1,0,0,1,210,680) translate(107.07499999999999 23.6)"/><use xlink:href="#l" transform="matrix(1,0,0,1,205,722.5) translate(13 17.1)"/><use xlink:href="#m" transform="matrix(1,0,0,1,265,722.5) translate(35.55 17.1)"/><use xlink:href="#n" transform="matrix(1,0,0,1,405,722.5) translate(50.55 17.1)"/><use xlink:href="#o" transform="matrix(1,0,0,1,265,754.5) translate(23.075000000000003 17.1)"/><use xlink:href="#p" transform="matrix(1,0,0,1,405,754.5) translate(21.775 17.1)"/><use xlink:href="#q" transform="matrix(1,0,0,1,265,786.5) translate(23.549999999999997 17.1)"/><use xlink:href="#p" transform="matrix(1,0,0,1,405,786.5) translate(21.775 17.1)"/><use xlink:href="#r" transform="matrix(1,0,0,1,265,818.5) translate(0 17.1)"/><use xlink:href="#p" transform="matrix(1,0,0,1,405,818.5) translate(21.775 17.1)"/><path d="M1300 708c0-4.42 3.58-8 8-8h344c4.42 0 8 3.58 8 8v152c0 4.42-3.58 8-8 8h-344c-4.42 0-8-3.58-8-8z" fill="#fff"/><path d="M1300 700h360v40h-360z" fill="#ccc"/><path d="M1300 708c0-4.42 3.58-8 8-8h344c4.42 0 8 3.58 8 8v152c0 4.42-3.58 8-8 8h-344c-4.42 0-8-3.58-8-8zM1300 740h360M1360 740v128M1510 740v128" stroke="#333" fill="none"/><use xlink:href="#s" transform="matrix(1,0,0,1,1310,700) translate(153 23.6)"/><use xlink:href="#l" transform="matrix(1,0,0,1,1305,742.5) translate(13 17.1)"/><use xlink:href="#t" transform="matrix(1,0,0,1,1365,742.5) translate(41.025 17.1)"/><use xlink:href="#n" transform="matrix(1,0,0,1,1515,742.5) translate(55.55 17.1)"/><use xlink:href="#u" transform="matrix(1,0,0,1,1305,774.5) translate(13.524999999999999 17.1)"/><use xlink:href="#m" transform="matrix(1,0,0,1,1365,774.5) translate(40.55 17.1)"/><use xlink:href="#n" transform="matrix(1,0,0,1,1515,774.5) translate(55.55 17.1)"/><use xlink:href="#v" transform="matrix(1,0,0,1,1365,806.5) translate(17.525 17.1)"/><use xlink:href="#w" transform="matrix(1,0,0,1,1515,806.5) translate(46.724999999999994 17.1)"/><use xlink:href="#x" transform="matrix(1,0,0,1,1365,838.5) translate(18.5 17.1)"/><use xlink:href="#y" transform="matrix(1,0,0,1,1515,838.5) translate(26.775 17.1)"/><path d="M560.5 735.92H908c6.63 0 12 5.37 12 12V776c0 6.63 5.37 12 12 12h348.1" stroke="#333" fill="none"/><path d="M560.5 745.92v-20M540.5 735.92h20M1299.28 798l-20-10 20-10M1299.28 788h-20" stroke="#333" fill="#fff"/><path d="M720 408c0-4.42 3.58-8 8-8h304c4.42 0 8 3.58 8 8v184c0 4.42-3.58 8-8 8H728c-4.42 0-8-3.58-8-8z" fill="#fff"/><path d="M720 400h320v40H720z" fill="#ccc"/><path d="M720 408c0-4.42 3.58-8 8-8h304c4.42 0 8 3.58 8 8v184c0 4.42-3.58 8-8 8H728c-4.42 0-8-3.58-8-8zM720 440h320M780 440v160M910 440v160" stroke="#333" fill="none"/><use xlink:href="#z" transform="matrix(1,0,0,1,729.9999999999999,400) translate(91.05 23.6)"/><use xlink:href="#l" transform="matrix(1,0,0,1,724.9999999999999,442.5) translate(13 17.1)"/><use xlink:href="#A" transform="matrix(1,0,0,1,784.9999999999999,442.5) translate(11.074999999999996 17.1)"/><use xlink:href="#n" transform="matrix(1,0,0,1,914.9999999999999,442.5) translate(45.55 17.1)"/><use xlink:href="#u" transform="matrix(1,0,0,1,724.9999999999999,474.5) translate(13.524999999999999 17.1)"/><use xlink:href="#t" transform="matrix(1,0,0,1,784.9999999999999,474.5) translate(31.025 17.1)"/><use xlink:href="#n" transform="matrix(1,0,0,1,914.9999999999999,474.5) translate(45.55 17.1)"/><use xlink:href="#u" transform="matrix(1,0,0,1,724.9999999999999,506.5) translate(13.524999999999999 17.1)"/><use xlink:href="#m" transform="matrix(1,0,0,1,784.9999999999999,506.5) translate(30.549999999999997 17.1)"/><use xlink:href="#n" transform="matrix(1,0,0,1,914.9999999999999,506.5) translate(45.55 17.1)"/><use xlink:href="#v" transform="matrix(1,0,0,1,784.9999999999999,538.5) translate(7.524999999999999 17.1)"/><use xlink:href="#w" transform="matrix(1,0,0,1,914.9999999999999,538.5) translate(36.724999999999994 17.1)"/><use xlink:href="#B" transform="matrix(1,0,0,1,784.9999999999999,570.5) translate(3.549999999999997 17.1)"/><use xlink:href="#p" transform="matrix(1,0,0,1,914.9999999999999,570.5) translate(16.775 17.1)"/><path d="M560.5 735.92H618c6.63 0 12-5.37 12-12v-191.9c0-6.63 5.37-12 12-12h58.1" stroke="#333" fill="none"/><path d="M560.5 745.92v-20M540.5 735.92h20M719.28 530l-20-10 20-10M719.28 520h-20" stroke="#333" fill="#fff"/><path d="M1279.5 756H1182c-6.63 0-12-5.37-12-12V499.96c0-6.62-5.37-12-12-12h-98.1" stroke="#333" fill="none"/><path d="M1279.5 746v20M1299.5 756h-20M1040.72 477.96l20 10-20 10M1040.72 487.96h20" stroke="#333" fill="#fff"/><path d="M720 188c0-4.42 3.58-8 8-8h304c4.42 0 8 3.58 8 8v120c0 4.42-3.58 8-8 8H728c-4.42 0-8-3.58-8-8z" fill="#fff"/><path d="M720 180h320v40H720z" fill="#ccc"/><path d="M720 188c0-4.42 3.58-8 8-8h304c4.42 0 8 3.58 8 8v120c0 4.42-3.58 8-8 8H728c-4.42 0-8-3.58-8-8zM720 220h320M780 220v96M910 220v96" stroke="#333" fill="none"/><use xlink:href="#C" transform="matrix(1,0,0,1,730,180) translate(114.55 23.6)"/><use xlink:href="#u" transform="matrix(1,0,0,1,725,222.5) translate(13.524999999999999 17.1)"/><use xlink:href="#m" transform="matrix(1,0,0,1,785,222.5) translate(30.549999999999997 17.1)"/><use xlink:href="#n" transform="matrix(1,0,0,1,915,222.5) translate(45.55 17.1)"/><use xlink:href="#u" transform="matrix(1,0,0,1,725,254.5) translate(13.524999999999999 17.1)"/><use xlink:href="#t" transform="matrix(1,0,0,1,785,254.5) translate(31.025 17.1)"/><use xlink:href="#n" transform="matrix(1,0,0,1,915,254.5) translate(45.55 17.1)"/><use xlink:href="#v" transform="matrix(1,0,0,1,785,286.5) translate(7.524999999999999 17.1)"/><use xlink:href="#w" transform="matrix(1,0,0,1,915,286.5) translate(36.724999999999994 17.1)"/><path d="M560.5 735.92H618c6.63 0 12-5.37 12-12V247.96c0-6.62 5.37-12 12-12h58.1" stroke="#333" fill="none"/><path d="M560.5 745.92v-20M540.5 735.92h20M719.28 245.96l-20-10 20-10M719.28 235.96h-20" stroke="#333" fill="#fff"/><path d="M1279.5 755.92H1182c-6.63 0-12-5.37-12-12V280.06c0-6.62-5.37-12-12-12h-98.1" stroke="#333" fill="none"/><path d="M1279.5 745.92v20M1299.5 755.92h-20M1040.72 258.06l20 10-20 10M1040.72 268.06h20" stroke="#333" fill="#fff"/><path d="M1300 948c0-4.42 3.58-8 8-8h324c4.42 0 8 3.58 8 8v184c0 4.42-3.58 8-8 8h-324c-4.42 0-8-3.58-8-8z" fill="#fff"/><path d="M1300 940h340v40h-340z" fill="#ccc"/><path d="M1300 948c0-4.42 3.58-8 8-8h324c4.42 0 8 3.58 8 8v184c0 4.42-3.58 8-8 8h-324c-4.42 0-8-3.58-8-8zM1300 980h340M1360 980v160M1500 980v160" stroke="#333" fill="none"/><use xlink:href="#D" transform="matrix(1,0,0,1,1310,940) translate(137.5 23.6)"/><use xlink:href="#l" transform="matrix(1,0,0,1,1305,982.5) translate(13 17.1)"/><use xlink:href="#E" transform="matrix(1,0,0,1,1365,982.5) translate(30.525 17.1)"/><use xlink:href="#n" transform="matrix(1,0,0,1,1505,982.5) translate(50.55 17.1)"/><use xlink:href="#u" transform="matrix(1,0,0,1,1305,1014.5) translate(13.524999999999999 17.1)"/><use xlink:href="#m" transform="matrix(1,0,0,1,1365,1014.5) translate(35.55 17.1)"/><use xlink:href="#n" transform="matrix(1,0,0,1,1505,1014.5) translate(50.55 17.1)"/><use xlink:href="#v" transform="matrix(1,0,0,1,1365,1046.5) translate(12.524999999999999 17.1)"/><use xlink:href="#w" transform="matrix(1,0,0,1,1505,1046.5) translate(41.724999999999994 17.1)"/><use xlink:href="#D" transform="matrix(1,0,0,1,1365,1078.5) translate(42.5 17.1)"/><use xlink:href="#y" transform="matrix(1,0,0,1,1505,1078.5) translate(21.775 17.1)"/><g><use xlink:href="#F" transform="matrix(1,0,0,1,1365,1110.5) translate(21.574999999999996 17.1)"/></g><g><use xlink:href="#y" transform="matrix(1,0,0,1,1505,1110.5) translate(21.775 17.1)"/></g><path d="M560.5 735.92H908c6.63 0 12 5.37 12 12V1016c0 6.63 5.37 12 12 12h348.1" stroke="#333" fill="none"/><path d="M560.5 745.92v-20M540.5 735.92h20M1299.28 1038l-20-10 20-10M1299.28 1028h-20" stroke="#333" fill="#fff"/><defs><path fill="#a9afb8" d="M199 0l-22-63H83L61 0H9l90-248h61L250 0h-51zm-33-102l-36-108c-10 38-24 72-36 108h72" id="G"/><path fill="#a9afb8" d="M88-194c31-1 46 15 58 34l-1-101h50l1 261h-48c-2-10 0-23-3-31C134-8 116 4 84 4 32 4 16-41 15-95c0-56 19-97 73-99zm17 164c33 0 40-30 41-66 1-37-9-64-41-64s-38 30-39 65c0 43 13 65 39 65" id="H"/><g id="a"><use transform="matrix(0.0728395061728395,0,0,0.0728395061728395,0,0)" xlink:href="#G"/><use transform="matrix(0.0728395061728395,0,0,0.0728395061728395,18.86543209876543,0)" xlink:href="#H"/><use transform="matrix(0.0728395061728395,0,0,0.0728395061728395,34.81728395061728,0)" xlink:href="#H"/></g><path fill="#a9afb8" d="M133-34C117-15 103 5 69 4 32 3 11-16 11-54c-1-60 55-63 116-61 1-26-3-47-28-47-18 1-26 9-28 27l-52-2c7-38 36-58 82-57s74 22 75 68l1 82c-1 14 12 18 25 15v27c-30 8-71 5-69-32zm-48 3c29 0 43-24 42-57-32 0-66-3-65 30 0 17 8 27 23 27" id="I"/><use transform="matrix(0.0728395061728395,0,0,0.0728395061728395,0,0)" xlink:href="#I" id="b"/><path fill="#a9afb8" d="M24-248c93 1 206-16 204 79-1 75-69 88-152 82V0H24v-248zm52 121c47 0 100 7 100-41 0-47-54-39-100-39v80" id="J"/><path fill="#a9afb8" d="M114-157C55-157 80-60 75 0H25v-261h50l-1 109c12-26 28-41 61-42 86-1 58 113 63 194h-50c-7-57 23-157-34-157" id="K"/><path fill="#a9afb8" d="M110-194c64 0 96 36 96 99 0 64-35 99-97 99-61 0-95-36-95-99 0-62 34-99 96-99zm-1 164c35 0 45-28 45-65 0-40-10-65-43-65-34 0-45 26-45 65 0 36 10 65 43 65" id="L"/><path fill="#a9afb8" d="M115-3C79 11 28 4 28-45v-112H4v-33h27l15-45h31v45h36v33H77v99c-1 23 16 31 38 25v30" id="M"/><path fill="#a9afb8" d="M137-138c1-29-70-34-71-4 15 46 118 7 119 86 1 83-164 76-172 9l43-7c4 19 20 25 44 25 33 8 57-30 24-41C81-84 22-81 20-136c-2-80 154-74 161-7" id="N"/><g id="c"><use transform="matrix(0.0728395061728395,0,0,0.0728395061728395,0,0)" xlink:href="#J"/><use transform="matrix(0.0728395061728395,0,0,0.0728395061728395,17.48148148148148,0)" xlink:href="#K"/><use transform="matrix(0.0728395061728395,0,0,0.0728395061728395,33.43333333333333,0)" xlink:href="#L"/><use transform="matrix(0.0728395061728395,0,0,0.0728395061728395,49.38518518518518,0)" xlink:href="#M"/><use transform="matrix(0.0728395061728395,0,0,0.0728395061728395,58.05308641975308,0)" xlink:href="#L"/><use transform="matrix(0.0728395061728395,0,0,0.0728395061728395,74.00493827160493,0)" xlink:href="#N"/></g><path fill="#a9afb8" d="M136-208V0H84v-208H4v-40h212v40h-80" id="O"/><path fill="#a9afb8" d="M135-194c52 0 70 43 70 98 0 56-19 99-73 100-30 1-46-15-58-35L72 0H24l1-261h50v104c11-23 29-37 60-37zM114-30c31 0 40-27 40-66 0-37-7-63-39-63s-41 28-41 65c0 36 8 64 40 64" id="P"/><path fill="#a9afb8" d="M25 0v-261h50V0H25" id="Q"/><path fill="#a9afb8" d="M185-48c-13 30-37 53-82 52C43 2 14-33 14-96s30-98 90-98c62 0 83 45 84 108H66c0 31 8 55 39 56 18 0 30-7 34-22zm-45-69c5-46-57-63-70-21-2 6-4 13-4 21h74" id="R"/><g id="d"><use transform="matrix(0.0728395061728395,0,0,0.0728395061728395,0,0)" xlink:href="#O"/><use transform="matrix(0.0728395061728395,0,0,0.0728395061728395,13.985185185185184,0)" xlink:href="#I"/><use transform="matrix(0.0728395061728395,0,0,0.0728395061728395,28.553086419753086,0)" xlink:href="#P"/><use transform="matrix(0.0728395061728395,0,0,0.0728395061728395,44.504938271604935,0)" xlink:href="#Q"/><use transform="matrix(0.0728395061728395,0,0,0.0728395061728395,51.78888888888889,0)" xlink:href="#R"/></g><path fill="#a9afb8" d="M233-177c-1 41-23 64-60 70L243 0h-38l-65-103H63V0H30v-248c88 3 205-21 203 71zM63-129c60-2 137 13 137-47 0-61-80-42-137-45v92" id="S"/><path fill="#a9afb8" d="M100-194c62-1 85 37 85 99 1 63-27 99-86 99S16-35 15-95c0-66 28-99 85-99zM99-20c44 1 53-31 53-75 0-43-8-75-51-75s-53 32-53 75 10 74 51 75" id="T"/><path fill="#a9afb8" d="M115-194c53 0 69 39 70 98 0 66-23 100-70 100C84 3 66-7 56-30L54 0H23l1-261h32v101c10-23 28-34 59-34zm-8 174c40 0 45-34 45-75 0-40-5-75-45-74-42 0-51 32-51 76 0 43 10 73 51 73" id="U"/><path fill="#a9afb8" d="M100-194c63 0 86 42 84 106H49c0 40 14 67 53 68 26 1 43-12 49-29l28 8c-11 28-37 45-77 45C44 4 14-33 15-96c1-61 26-98 85-98zm52 81c6-60-76-77-97-28-3 7-6 17-6 28h103" id="V"/><path fill="#a9afb8" d="M117-194c89-4 53 116 60 194h-32v-121c0-31-8-49-39-48C34-167 62-67 57 0H25l-1-190h30c1 10-1 24 2 32 11-22 29-35 61-36" id="W"/><g id="e"><use transform="matrix(0.04248971193415638,0,0,0.04248971193415638,0,0)" xlink:href="#S"/><use transform="matrix(0.04248971193415638,0,0,0.04248971193415638,11.004835390946502,0)" xlink:href="#T"/><use transform="matrix(0.04248971193415638,0,0,0.04248971193415638,19.502777777777776,0)" xlink:href="#T"/><use transform="matrix(0.04248971193415638,0,0,0.04248971193415638,28.000720164609046,0)" xlink:href="#U"/><use transform="matrix(0.04248971193415638,0,0,0.04248971193415638,36.498662551440326,0)" xlink:href="#V"/><use transform="matrix(0.04248971193415638,0,0,0.04248971193415638,44.9966049382716,0)" xlink:href="#W"/></g><path fill="#a9afb8" d="M185-189c-5-48-123-54-124 2 14 75 158 14 163 119 3 78-121 87-175 55-17-10-28-26-33-46l33-7c5 56 141 63 141-1 0-78-155-14-162-118-5-82 145-84 179-34 5 7 8 16 11 25" id="X"/><path fill="#a9afb8" d="M84 4C-5 8 30-112 23-190h32v120c0 31 7 50 39 49 72-2 45-101 50-169h31l1 190h-30c-1-10 1-25-2-33-11 22-28 36-60 37" id="Y"/><path fill="#a9afb8" d="M114-163C36-179 61-72 57 0H25l-1-190h30c1 12-1 29 2 39 6-27 23-49 58-41v29" id="Z"/><path fill="#a9afb8" d="M141-36C126-15 110 5 73 4 37 3 15-17 15-53c-1-64 63-63 125-63 3-35-9-54-41-54-24 1-41 7-42 31l-33-3c5-37 33-52 76-52 45 0 72 20 72 64v82c-1 20 7 32 28 27v20c-31 9-61-2-59-35zM48-53c0 20 12 33 32 33 41-3 63-29 60-74-43 2-92-5-92 41" id="aa"/><path fill="#a9afb8" d="M210-169c-67 3-38 105-44 169h-31v-121c0-29-5-50-35-48C34-165 62-65 56 0H25l-1-190h30c1 10-1 24 2 32 10-44 99-50 107 0 11-21 27-35 58-36 85-2 47 119 55 194h-31v-121c0-29-5-49-35-48" id="ab"/><g id="f"><use transform="matrix(0.04248971193415638,0,0,0.04248971193415638,0,0)" xlink:href="#X"/><use transform="matrix(0.04248971193415638,0,0,0.04248971193415638,10.19753086419753,0)" xlink:href="#Y"/><use transform="matrix(0.04248971193415638,0,0,0.04248971193415638,18.695473251028805,0)" xlink:href="#U"/><use transform="matrix(0.04248971193415638,0,0,0.04248971193415638,27.193415637860078,0)" xlink:href="#Z"/><use transform="matrix(0.04248971193415638,0,0,0.04248971193415638,32.249691358024684,0)" xlink:href="#aa"/><use transform="matrix(0.04248971193415638,0,0,0.04248971193415638,40.74763374485596,0)" xlink:href="#ab"/><use transform="matrix(0.04248971193415638,0,0,0.04248971193415638,53.45205761316872,0)" xlink:href="#aa"/><use transform="matrix(0.04248971193415638,0,0,0.04248971193415638,61.949999999999996,0)" xlink:href="#W"/><use transform="matrix(0.04248971193415638,0,0,0.04248971193415638,70.44794238683127,0)" xlink:href="#V"/><use transform="matrix(0.04248971193415638,0,0,0.04248971193415638,78.94588477366254,0)" xlink:href="#W"/></g><path fill="#a9afb8" d="M32 76v-337h29V76H32" id="ac"/><use transform="matrix(0.04248971193415638,0,0,0.04248971193415638,0,0)" xlink:href="#ac" id="g"/><path fill="#a9afb8" d="M190 0L58-211 59 0H30v-248h39L202-35l-2-213h31V0h-41" id="ad"/><path fill="#a9afb8" d="M108 0H70L1-190h34L89-25l56-165h34" id="ae"/><g id="h"><use transform="matrix(0.04248971193415638,0,0,0.04248971193415638,0,0)" xlink:href="#ad"/><use transform="matrix(0.04248971193415638,0,0,0.04248971193415638,11.004835390946502,0)" xlink:href="#T"/><use transform="matrix(0.04248971193415638,0,0,0.04248971193415638,19.502777777777776,0)" xlink:href="#ae"/><use transform="matrix(0.04248971193415638,0,0,0.04248971193415638,27.150925925925925,0)" xlink:href="#V"/><use transform="matrix(0.04248971193415638,0,0,0.04248971193415638,35.6488683127572,0)" xlink:href="#ab"/><use transform="matrix(0.04248971193415638,0,0,0.04248971193415638,48.35329218106995,0)" xlink:href="#U"/><use transform="matrix(0.04248971193415638,0,0,0.04248971193415638,56.851234567901244,0)" xlink:href="#V"/><use transform="matrix(0.04248971193415638,0,0,0.04248971193415638,65.34917695473251,0)" xlink:href="#Z"/></g><path fill="#a9afb8" d="M27 0v-27h64v-190l-56 39v-29l58-41h29v221h61V0H27" id="af"/><path fill="#a9afb8" d="M99-251c64 0 84 50 84 122C183-37 130 33 47-8c-14-7-20-23-25-40l30-5c6 39 69 39 84 7 9-19 16-44 16-74-10 22-31 35-62 35-49 0-73-33-73-83 0-54 28-83 82-83zm-1 141c31-1 51-18 51-49 0-36-14-67-51-67-34 0-49 23-49 58 0 34 15 58 49 58" id="ag"/><path fill="#a9afb8" d="M68-38c1 34 0 65-14 84H32c9-13 17-26 17-46H33v-38h35" id="ah"/><g id="i"><use transform="matrix(0.04248971193415638,0,0,0.04248971193415638,0,0)" xlink:href="#af"/><use transform="matrix(0.04248971193415638,0,0,0.04248971193415638,8.497942386831275,0)" xlink:href="#ag"/><use transform="matrix(0.04248971193415638,0,0,0.04248971193415638,16.99588477366255,0)" xlink:href="#ah"/></g><path fill="#a9afb8" d="M101-251c82-7 93 87 43 132L82-64C71-53 59-42 53-27h129V0H18c2-99 128-94 128-182 0-28-16-43-45-43s-46 15-49 41l-32-3c6-41 34-60 81-64" id="ai"/><path fill="#a9afb8" d="M101-251c68 0 85 55 85 127S166 4 100 4C33 4 14-52 14-124c0-73 17-127 87-127zm-1 229c47 0 54-49 54-102s-4-102-53-102c-51 0-55 48-55 102 0 53 5 102 54 102" id="aj"/><g id="j"><use transform="matrix(0.04248971193415638,0,0,0.04248971193415638,0,0)" xlink:href="#ai"/><use transform="matrix(0.04248971193415638,0,0,0.04248971193415638,8.497942386831275,0)" xlink:href="#aj"/><use transform="matrix(0.04248971193415638,0,0,0.04248971193415638,16.99588477366255,0)" xlink:href="#ai"/><use transform="matrix(0.04248971193415638,0,0,0.04248971193415638,25.493827160493822,0)" xlink:href="#aj"/></g><path fill="#333" d="M206 0h-36l-40-164L89 0H53L-1-190h32L70-26l43-164h34l41 164 42-164h31" id="ak"/><path fill="#333" d="M100-194c63 0 86 42 84 106H49c0 40 14 67 53 68 26 1 43-12 49-29l28 8c-11 28-37 45-77 45C44 4 14-33 15-96c1-61 26-98 85-98zm52 81c6-60-76-77-97-28-3 7-6 17-6 28h103" id="al"/><path fill="#333" d="M115-194c53 0 69 39 70 98 0 66-23 100-70 100C84 3 66-7 56-30L54 0H23l1-261h32v101c10-23 28-34 59-34zm-8 174c40 0 45-34 45-75 0-40-5-75-45-74-42 0-51 32-51 76 0 43 10 73 51 73" id="am"/><path fill="#333" d="M135-143c-3-34-86-38-87 0 15 53 115 12 119 90S17 21 10-45l28-5c4 36 97 45 98 0-10-56-113-15-118-90-4-57 82-63 122-42 12 7 21 19 24 35" id="an"/><path fill="#333" d="M24-231v-30h32v30H24zM24 0v-190h32V0H24" id="ao"/><path fill="#333" d="M59-47c-2 24 18 29 38 22v24C64 9 27 4 27-40v-127H5v-23h24l9-43h21v43h35v23H59v120" id="ap"/><path fill="#333" d="M-5 72V49h209v23H-5" id="aq"/><path fill="#333" d="M84 4C-5 8 30-112 23-190h32v120c0 31 7 50 39 49 72-2 45-101 50-169h31l1 190h-30c-1-10 1-25-2-33-11 22-28 36-60 37" id="ar"/><path fill="#333" d="M114-163C36-179 61-72 57 0H25l-1-190h30c1 12-1 29 2 39 6-27 23-49 58-41v29" id="as"/><g id="k"><use transform="matrix(0.05,0,0,0.05,0,0)" xlink:href="#ak"/><use transform="matrix(0.05,0,0,0.05,12.950000000000001,0)" xlink:href="#al"/><use transform="matrix(0.05,0,0,0.05,22.950000000000003,0)" xlink:href="#am"/><use transform="matrix(0.05,0,0,0.05,32.95,0)" xlink:href="#an"/><use transform="matrix(0.05,0,0,0.05,41.95,0)" xlink:href="#ao"/><use transform="matrix(0.05,0,0,0.05,45.900000000000006,0)" xlink:href="#ap"/><use transform="matrix(0.05,0,0,0.05,50.900000000000006,0)" xlink:href="#al"/><use transform="matrix(0.05,0,0,0.05,60.900000000000006,0)" xlink:href="#aq"/><use transform="matrix(0.05,0,0,0.05,70.9,0)" xlink:href="#ar"/><use transform="matrix(0.05,0,0,0.05,80.9,0)" xlink:href="#an"/><use transform="matrix(0.05,0,0,0.05,89.9,0)" xlink:href="#al"/><use transform="matrix(0.05,0,0,0.05,99.9,0)" xlink:href="#as"/></g><path fill="#333" d="M30-248c87 1 191-15 191 75 0 78-77 80-158 76V0H30v-248zm33 125c57 0 124 11 124-50 0-59-68-47-124-48v98" id="at"/><path fill="#333" d="M194 0L95-120 63-95V0H30v-248h33v124l119-124h40L117-140 236 0h-42" id="au"/><g id="l"><use transform="matrix(0.05,0,0,0.05,0,0)" xlink:href="#at"/><use transform="matrix(0.05,0,0,0.05,12,0)" xlink:href="#au"/></g><path fill="#333" d="M85-194c31 0 48 13 60 33l-1-100h32l1 261h-30c-2-10 0-23-3-31C134-8 116 4 85 4 32 4 16-35 15-94c0-66 23-100 70-100zm9 24c-40 0-46 34-46 75 0 40 6 74 45 74 42 0 51-32 51-76 0-42-9-74-50-73" id="av"/><g id="m"><use transform="matrix(0.05,0,0,0.05,0,0)" xlink:href="#ar"/><use transform="matrix(0.05,0,0,0.05,10,0)" xlink:href="#an"/><use transform="matrix(0.05,0,0,0.05,19,0)" xlink:href="#al"/><use transform="matrix(0.05,0,0,0.05,29,0)" xlink:href="#as"/><use transform="matrix(0.05,0,0,0.05,34.95,0)" xlink:href="#aq"/><use transform="matrix(0.05,0,0,0.05,44.95,0)" xlink:href="#ao"/><use transform="matrix(0.05,0,0,0.05,48.900000000000006,0)" xlink:href="#av"/></g><path fill="#333" d="M33 0v-248h34V0H33" id="aw"/><path fill="#333" d="M190 0L58-211 59 0H30v-248h39L202-35l-2-213h31V0h-41" id="ax"/><path fill="#333" d="M127-220V0H93v-220H8v-28h204v28h-85" id="ay"/><g id="n"><use transform="matrix(0.05,0,0,0.05,0,0)" xlink:href="#aw"/><use transform="matrix(0.05,0,0,0.05,5,0)" xlink:href="#ax"/><use transform="matrix(0.05,0,0,0.05,17.950000000000003,0)" xlink:href="#ay"/></g><path fill="#333" d="M101-234c-31-9-42 10-38 44h38v23H63V0H32v-167H5v-23h27c-7-52 17-82 69-68v24" id="az"/><path fill="#333" d="M117-194c89-4 53 116 60 194h-32v-121c0-31-8-49-39-48C34-167 62-67 57 0H25l-1-190h30c1 10-1 24 2 32 11-22 29-35 61-36" id="aA"/><path fill="#333" d="M141-36C126-15 110 5 73 4 37 3 15-17 15-53c-1-64 63-63 125-63 3-35-9-54-41-54-24 1-41 7-42 31l-33-3c5-37 33-52 76-52 45 0 72 20 72 64v82c-1 20 7 32 28 27v20c-31 9-61-2-59-35zM48-53c0 20 12 33 32 33 41-3 63-29 60-74-43 2-92-5-92 41" id="aB"/><path fill="#333" d="M210-169c-67 3-38 105-44 169h-31v-121c0-29-5-50-35-48C34-165 62-65 56 0H25l-1-190h30c1 10-1 24 2 32 10-44 99-50 107 0 11-21 27-35 58-36 85-2 47 119 55 194h-31v-121c0-29-5-49-35-48" id="aC"/><g id="o"><use transform="matrix(0.05,0,0,0.05,0,0)" xlink:href="#az"/><use transform="matrix(0.05,0,0,0.05,5,0)" xlink:href="#ao"/><use transform="matrix(0.05,0,0,0.05,8.95,0)" xlink:href="#as"/><use transform="matrix(0.05,0,0,0.05,14.899999999999999,0)" xlink:href="#an"/><use transform="matrix(0.05,0,0,0.05,23.9,0)" xlink:href="#ap"/><use transform="matrix(0.05,0,0,0.05,28.899999999999995,0)" xlink:href="#aq"/><use transform="matrix(0.05,0,0,0.05,38.9,0)" xlink:href="#aA"/><use transform="matrix(0.05,0,0,0.05,48.9,0)" xlink:href="#aB"/><use transform="matrix(0.05,0,0,0.05,58.900000000000006,0)" xlink:href="#aC"/><use transform="matrix(0.05,0,0,0.05,73.85,0)" xlink:href="#al"/></g><path fill="#333" d="M137 0h-34L2-248h35l83 218 83-218h36" id="aD"/><path fill="#333" d="M205 0l-28-72H64L36 0H1l101-248h38L239 0h-34zm-38-99l-47-123c-12 45-31 82-46 123h93" id="aE"/><path fill="#333" d="M233-177c-1 41-23 64-60 70L243 0h-38l-65-103H63V0H30v-248c88 3 205-21 203 71zM63-129c60-2 137 13 137-47 0-61-80-42-137-45v92" id="aF"/><path fill="#333" d="M212-179c-10-28-35-45-73-45-59 0-87 40-87 99 0 60 29 101 89 101 43 0 62-24 78-52l27 14C228-24 195 4 139 4 59 4 22-46 18-125c-6-104 99-153 187-111 19 9 31 26 39 46" id="aG"/><path fill="#333" d="M197 0v-115H63V0H30v-248h33v105h134v-105h34V0h-34" id="aH"/><g id="p"><use transform="matrix(0.05,0,0,0.05,0,0)" xlink:href="#aD"/><use transform="matrix(0.05,0,0,0.05,10.65,0)" xlink:href="#aE"/><use transform="matrix(0.05,0,0,0.05,22.65,0)" xlink:href="#aF"/><use transform="matrix(0.05,0,0,0.05,35.6,0)" xlink:href="#aG"/><use transform="matrix(0.05,0,0,0.05,48.550000000000004,0)" xlink:href="#aH"/><use transform="matrix(0.05,0,0,0.05,61.5,0)" xlink:href="#aE"/><use transform="matrix(0.05,0,0,0.05,73.5,0)" xlink:href="#aF"/></g><path fill="#333" d="M24 0v-261h32V0H24" id="aI"/><g id="q"><use transform="matrix(0.05,0,0,0.05,0,0)" xlink:href="#aI"/><use transform="matrix(0.05,0,0,0.05,3.95,0)" xlink:href="#aB"/><use transform="matrix(0.05,0,0,0.05,13.949999999999998,0)" xlink:href="#an"/><use transform="matrix(0.05,0,0,0.05,22.95,0)" xlink:href="#ap"/><use transform="matrix(0.05,0,0,0.05,27.950000000000003,0)" xlink:href="#aq"/><use transform="matrix(0.05,0,0,0.05,37.95,0)" xlink:href="#aA"/><use transform="matrix(0.05,0,0,0.05,47.95,0)" xlink:href="#aB"/><use transform="matrix(0.05,0,0,0.05,57.95,0)" xlink:href="#aC"/><use transform="matrix(0.05,0,0,0.05,72.9,0)" xlink:href="#al"/></g><path d="M100-194c63 0 86 42 84 106H49c0 40 14 67 53 68 26 1 43-12 49-29l28 8c-11 28-37 45-77 45C44 4 14-33 15-96c1-61 26-98 85-98zm52 81c6-60-76-77-97-28-3 7-6 17-6 28h103" id="aJ"/><path d="M210-169c-67 3-38 105-44 169h-31v-121c0-29-5-50-35-48C34-165 62-65 56 0H25l-1-190h30c1 10-1 24 2 32 10-44 99-50 107 0 11-21 27-35 58-36 85-2 47 119 55 194h-31v-121c0-29-5-49-35-48" id="aK"/><path d="M141-36C126-15 110 5 73 4 37 3 15-17 15-53c-1-64 63-63 125-63 3-35-9-54-41-54-24 1-41 7-42 31l-33-3c5-37 33-52 76-52 45 0 72 20 72 64v82c-1 20 7 32 28 27v20c-31 9-61-2-59-35zM48-53c0 20 12 33 32 33 41-3 63-29 60-74-43 2-92-5-92 41" id="aL"/><path d="M24-231v-30h32v30H24zM24 0v-190h32V0H24" id="aM"/><path d="M24 0v-261h32V0H24" id="aN"/><path d="M-5 72V49h209v23H-5" id="aO"/><path d="M85-194c31 0 48 13 60 33l-1-100h32l1 261h-30c-2-10 0-23-3-31C134-8 116 4 85 4 32 4 16-35 15-94c0-66 23-100 70-100zm9 24c-40 0-46 34-46 75 0 40 6 74 45 74 42 0 51-32 51-76 0-42-9-74-50-73" id="aP"/><path d="M114-163C36-179 61-72 57 0H25l-1-190h30c1 12-1 29 2 39 6-27 23-49 58-41v29" id="aQ"/><path d="M135-143c-3-34-86-38-87 0 15 53 115 12 119 90S17 21 10-45l28-5c4 36 97 45 98 0-10-56-113-15-118-90-4-57 82-63 122-42 12 7 21 19 24 35" id="aR"/><g id="r"><use transform="matrix(0.05,0,0,0.05,0,0)" xlink:href="#aJ"/><use transform="matrix(0.05,0,0,0.05,10,0)" xlink:href="#aK"/><use transform="matrix(0.05,0,0,0.05,24.950000000000003,0)" xlink:href="#aL"/><use transform="matrix(0.05,0,0,0.05,34.95,0)" xlink:href="#aM"/><use transform="matrix(0.05,0,0,0.05,38.900000000000006,0)" xlink:href="#aN"/><use transform="matrix(0.05,0,0,0.05,42.85000000000001,0)" xlink:href="#aO"/><use transform="matrix(0.05,0,0,0.05,52.85,0)" xlink:href="#aL"/><use transform="matrix(0.05,0,0,0.05,62.85,0)" xlink:href="#aP"/><use transform="matrix(0.05,0,0,0.05,72.85000000000001,0)" xlink:href="#aP"/><use transform="matrix(0.05,0,0,0.05,82.85000000000001,0)" xlink:href="#aQ"/><use transform="matrix(0.05,0,0,0.05,88.80000000000001,0)" xlink:href="#aJ"/><use transform="matrix(0.05,0,0,0.05,98.80000000000001,0)" xlink:href="#aR"/><use transform="matrix(0.05,0,0,0.05,107.80000000000001,0)" xlink:href="#aR"/></g><path fill="#333" d="M115-194c55 1 70 41 70 98S169 2 115 4C84 4 66-9 55-30l1 105H24l-1-265h31l2 30c10-21 28-34 59-34zm-8 174c40 0 45-34 45-75s-6-73-45-74c-42 0-51 32-51 76 0 43 10 73 51 73" id="aS"/><path fill="#333" d="M100-194c62-1 85 37 85 99 1 63-27 99-86 99S16-35 15-95c0-66 28-99 85-99zM99-20c44 1 53-31 53-75 0-43-8-75-51-75s-53 32-53 75 10 74 51 75" id="aT"/><g id="s"><use transform="matrix(0.05,0,0,0.05,0,0)" xlink:href="#aS"/><use transform="matrix(0.05,0,0,0.05,10,0)" xlink:href="#aT"/><use transform="matrix(0.05,0,0,0.05,20,0)" xlink:href="#an"/><use transform="matrix(0.05,0,0,0.05,29,0)" xlink:href="#ap"/></g><g id="t"><use transform="matrix(0.05,0,0,0.05,0,0)" xlink:href="#aS"/><use transform="matrix(0.05,0,0,0.05,10,0)" xlink:href="#aT"/><use transform="matrix(0.05,0,0,0.05,20,0)" xlink:href="#an"/><use transform="matrix(0.05,0,0,0.05,29,0)" xlink:href="#ap"/><use transform="matrix(0.05,0,0,0.05,34,0)" xlink:href="#aq"/><use transform="matrix(0.05,0,0,0.05,44,0)" xlink:href="#ao"/><use transform="matrix(0.05,0,0,0.05,47.95,0)" xlink:href="#av"/></g><path fill="#333" d="M63-220v92h138v28H63V0H30v-248h175v28H63" id="aU"/><g id="u"><use transform="matrix(0.05,0,0,0.05,0,0)" xlink:href="#aU"/><use transform="matrix(0.05,0,0,0.05,10.950000000000001,0)" xlink:href="#au"/></g><path fill="#333" d="M96-169c-40 0-48 33-48 73s9 75 48 75c24 0 41-14 43-38l32 2c-6 37-31 61-74 61-59 0-76-41-82-99-10-93 101-131 147-64 4 7 5 14 7 22l-32 3c-4-21-16-35-41-35" id="aV"/><g id="v"><use transform="matrix(0.05,0,0,0.05,0,0)" xlink:href="#aV"/><use transform="matrix(0.05,0,0,0.05,9,0)" xlink:href="#as"/><use transform="matrix(0.05,0,0,0.05,14.949999999999998,0)" xlink:href="#al"/><use transform="matrix(0.05,0,0,0.05,24.95,0)" xlink:href="#aB"/><use transform="matrix(0.05,0,0,0.05,34.95,0)" xlink:href="#ap"/><use transform="matrix(0.05,0,0,0.05,39.95,0)" xlink:href="#al"/><use transform="matrix(0.05,0,0,0.05,49.95,0)" xlink:href="#av"/><use transform="matrix(0.05,0,0,0.05,59.95,0)" xlink:href="#aq"/><use transform="matrix(0.05,0,0,0.05,69.95,0)" xlink:href="#av"/><use transform="matrix(0.05,0,0,0.05,79.95,0)" xlink:href="#aB"/><use transform="matrix(0.05,0,0,0.05,89.95,0)" xlink:href="#ap"/><use transform="matrix(0.05,0,0,0.05,94.95,0)" xlink:href="#al"/></g><path fill="#333" d="M30-248c118-7 216 8 213 122C240-48 200 0 122 0H30v-248zM63-27c89 8 146-16 146-99s-60-101-146-95v194" id="aW"/><path fill="#333" d="M30 0v-248h187v28H63v79h144v27H63v87h162V0H30" id="aX"/><g id="w"><use transform="matrix(0.05,0,0,0.05,0,0)" xlink:href="#aW"/><use transform="matrix(0.05,0,0,0.05,12.950000000000001,0)" xlink:href="#aE"/><use transform="matrix(0.05,0,0,0.05,23.6,0)" xlink:href="#ay"/><use transform="matrix(0.05,0,0,0.05,34.550000000000004,0)" xlink:href="#aX"/></g><path d="M115-194c55 1 70 41 70 98S169 2 115 4C84 4 66-9 55-30l1 105H24l-1-265h31l2 30c10-21 28-34 59-34zm-8 174c40 0 45-34 45-75s-6-73-45-74c-42 0-51 32-51 76 0 43 10 73 51 73" id="aY"/><path d="M100-194c62-1 85 37 85 99 1 63-27 99-86 99S16-35 15-95c0-66 28-99 85-99zM99-20c44 1 53-31 53-75 0-43-8-75-51-75s-53 32-53 75 10 74 51 75" id="aZ"/><path d="M59-47c-2 24 18 29 38 22v24C64 9 27 4 27-40v-127H5v-23h24l9-43h21v43h35v23H59v120" id="ba"/><path d="M96-169c-40 0-48 33-48 73s9 75 48 75c24 0 41-14 43-38l32 2c-6 37-31 61-74 61-59 0-76-41-82-99-10-93 101-131 147-64 4 7 5 14 7 22l-32 3c-4-21-16-35-41-35" id="bb"/><path d="M117-194c89-4 53 116 60 194h-32v-121c0-31-8-49-39-48C34-167 62-67 57 0H25l-1-190h30c1 10-1 24 2 32 11-22 29-35 61-36" id="bc"/><g id="x"><use transform="matrix(0.05,0,0,0.05,0,0)" xlink:href="#aY"/><use transform="matrix(0.05,0,0,0.05,10,0)" xlink:href="#aZ"/><use transform="matrix(0.05,0,0,0.05,20,0)" xlink:href="#aR"/><use transform="matrix(0.05,0,0,0.05,29,0)" xlink:href="#ba"/><use transform="matrix(0.05,0,0,0.05,34,0)" xlink:href="#aO"/><use transform="matrix(0.05,0,0,0.05,44,0)" xlink:href="#bb"/><use transform="matrix(0.05,0,0,0.05,53,0)" xlink:href="#aZ"/><use transform="matrix(0.05,0,0,0.05,63,0)" xlink:href="#bc"/><use transform="matrix(0.05,0,0,0.05,73,0)" xlink:href="#ba"/><use transform="matrix(0.05,0,0,0.05,78,0)" xlink:href="#aJ"/><use transform="matrix(0.05,0,0,0.05,88,0)" xlink:href="#bc"/><use transform="matrix(0.05,0,0,0.05,98,0)" xlink:href="#ba"/></g><path d="M137 0h-34L2-248h35l83 218 83-218h36" id="bd"/><path d="M205 0l-28-72H64L36 0H1l101-248h38L239 0h-34zm-38-99l-47-123c-12 45-31 82-46 123h93" id="be"/><path d="M233-177c-1 41-23 64-60 70L243 0h-38l-65-103H63V0H30v-248c88 3 205-21 203 71zM63-129c60-2 137 13 137-47 0-61-80-42-137-45v92" id="bf"/><path d="M212-179c-10-28-35-45-73-45-59 0-87 40-87 99 0 60 29 101 89 101 43 0 62-24 78-52l27 14C228-24 195 4 139 4 59 4 22-46 18-125c-6-104 99-153 187-111 19 9 31 26 39 46" id="bg"/><path d="M197 0v-115H63V0H30v-248h33v105h134v-105h34V0h-34" id="bh"/><g id="y"><use transform="matrix(0.05,0,0,0.05,0,0)" xlink:href="#bd"/><use transform="matrix(0.05,0,0,0.05,10.65,0)" xlink:href="#be"/><use transform="matrix(0.05,0,0,0.05,22.65,0)" xlink:href="#bf"/><use transform="matrix(0.05,0,0,0.05,35.6,0)" xlink:href="#bg"/><use transform="matrix(0.05,0,0,0.05,48.550000000000004,0)" xlink:href="#bh"/><use transform="matrix(0.05,0,0,0.05,61.5,0)" xlink:href="#be"/><use transform="matrix(0.05,0,0,0.05,73.5,0)" xlink:href="#bf"/></g><g id="z"><use transform="matrix(0.05,0,0,0.05,0,0)" xlink:href="#aS"/><use transform="matrix(0.05,0,0,0.05,10,0)" xlink:href="#aT"/><use transform="matrix(0.05,0,0,0.05,20,0)" xlink:href="#an"/><use transform="matrix(0.05,0,0,0.05,29,0)" xlink:href="#ap"/><use transform="matrix(0.05,0,0,0.05,34,0)" xlink:href="#aq"/><use transform="matrix(0.05,0,0,0.05,44,0)" xlink:href="#aV"/><use transform="matrix(0.05,0,0,0.05,53,0)" xlink:href="#aT"/><use transform="matrix(0.05,0,0,0.05,63,0)" xlink:href="#aC"/><use transform="matrix(0.05,0,0,0.05,77.95,0)" xlink:href="#aC"/><use transform="matrix(0.05,0,0,0.05,92.9,0)" xlink:href="#al"/><use transform="matrix(0.05,0,0,0.05,102.9,0)" xlink:href="#aA"/><use transform="matrix(0.05,0,0,0.05,112.9,0)" xlink:href="#ap"/></g><g id="A"><use transform="matrix(0.05,0,0,0.05,0,0)" xlink:href="#aV"/><use transform="matrix(0.05,0,0,0.05,9,0)" xlink:href="#aT"/><use transform="matrix(0.05,0,0,0.05,19,0)" xlink:href="#aC"/><use transform="matrix(0.05,0,0,0.05,33.95,0)" xlink:href="#aC"/><use transform="matrix(0.05,0,0,0.05,48.900000000000006,0)" xlink:href="#al"/><use transform="matrix(0.05,0,0,0.05,58.900000000000006,0)" xlink:href="#aA"/><use transform="matrix(0.05,0,0,0.05,68.9,0)" xlink:href="#ap"/><use transform="matrix(0.05,0,0,0.05,73.9,0)" xlink:href="#aq"/><use transform="matrix(0.05,0,0,0.05,83.9,0)" xlink:href="#ao"/><use transform="matrix(0.05,0,0,0.05,87.85000000000001,0)" xlink:href="#av"/></g><path fill="#333" d="M141 0L90-78 38 0H4l68-98-65-92h35l48 74 47-74h35l-64 92 68 98h-35" id="bi"/><g id="B"><use transform="matrix(0.05,0,0,0.05,0,0)" xlink:href="#aV"/><use transform="matrix(0.05,0,0,0.05,9,0)" xlink:href="#aT"/><use transform="matrix(0.05,0,0,0.05,19,0)" xlink:href="#aC"/><use transform="matrix(0.05,0,0,0.05,33.95,0)" xlink:href="#aC"/><use transform="matrix(0.05,0,0,0.05,48.900000000000006,0)" xlink:href="#al"/><use transform="matrix(0.05,0,0,0.05,58.900000000000006,0)" xlink:href="#aA"/><use transform="matrix(0.05,0,0,0.05,68.9,0)" xlink:href="#ap"/><use transform="matrix(0.05,0,0,0.05,73.9,0)" xlink:href="#aq"/><use transform="matrix(0.05,0,0,0.05,83.9,0)" xlink:href="#ap"/><use transform="matrix(0.05,0,0,0.05,88.9,0)" xlink:href="#al"/><use transform="matrix(0.05,0,0,0.05,98.9,0)" xlink:href="#bi"/><use transform="matrix(0.05,0,0,0.05,107.9,0)" xlink:href="#ap"/></g><path fill="#333" d="M143 0L79-87 56-68V0H24v-261h32v163l83-92h37l-77 82L181 0h-38" id="bj"/><g id="C"><use transform="matrix(0.05,0,0,0.05,0,0)" xlink:href="#aS"/><use transform="matrix(0.05,0,0,0.05,10,0)" xlink:href="#aT"/><use transform="matrix(0.05,0,0,0.05,20,0)" xlink:href="#an"/><use transform="matrix(0.05,0,0,0.05,29,0)" xlink:href="#ap"/><use transform="matrix(0.05,0,0,0.05,34,0)" xlink:href="#aq"/><use transform="matrix(0.05,0,0,0.05,44,0)" xlink:href="#aI"/><use transform="matrix(0.05,0,0,0.05,47.95,0)" xlink:href="#ao"/><use transform="matrix(0.05,0,0,0.05,51.900000000000006,0)" xlink:href="#bj"/><use transform="matrix(0.05,0,0,0.05,60.900000000000006,0)" xlink:href="#al"/></g><path fill="#333" d="M106-169C34-169 62-67 57 0H25v-261h32l-1 103c12-21 28-36 61-36 89 0 53 116 60 194h-32v-121c2-32-8-49-39-48" id="bk"/><g id="D"><use transform="matrix(0.05,0,0,0.05,0,0)" xlink:href="#aS"/><use transform="matrix(0.05,0,0,0.05,10,0)" xlink:href="#bk"/><use transform="matrix(0.05,0,0,0.05,20,0)" xlink:href="#aT"/><use transform="matrix(0.05,0,0,0.05,30,0)" xlink:href="#ap"/><use transform="matrix(0.05,0,0,0.05,35,0)" xlink:href="#aT"/></g><g id="E"><use transform="matrix(0.05,0,0,0.05,0,0)" xlink:href="#aS"/><use transform="matrix(0.05,0,0,0.05,10,0)" xlink:href="#bk"/><use transform="matrix(0.05,0,0,0.05,20,0)" xlink:href="#aT"/><use transform="matrix(0.05,0,0,0.05,30,0)" xlink:href="#ap"/><use transform="matrix(0.05,0,0,0.05,35,0)" xlink:href="#aT"/><use transform="matrix(0.05,0,0,0.05,45,0)" xlink:href="#aq"/><use transform="matrix(0.05,0,0,0.05,55,0)" xlink:href="#ao"/><use transform="matrix(0.05,0,0,0.05,58.95,0)" xlink:href="#av"/></g><g id="F"><use transform="matrix(0.05,0,0,0.05,0,0)" xlink:href="#av"/><use transform="matrix(0.05,0,0,0.05,10,0)" xlink:href="#al"/><use transform="matrix(0.05,0,0,0.05,20,0)" xlink:href="#an"/><use transform="matrix(0.05,0,0,0.05,29,0)" xlink:href="#aV"/><use transform="matrix(0.05,0,0,0.05,38,0)" xlink:href="#as"/><use transform="matrix(0.05,0,0,0.05,43.95,0)" xlink:href="#ao"/><use transform="matrix(0.05,0,0,0.05,47.900000000000006,0)" xlink:href="#aS"/><use transform="matrix(0.05,0,0,0.05,57.900000000000006,0)" xlink:href="#ap"/><use transform="matrix(0.05,0,0,0.05,62.900000000000006,0)" xlink:href="#ao"/><use transform="matrix(0.05,0,0,0.05,66.85000000000001,0)" xlink:href="#aT"/><use transform="matrix(0.05,0,0,0.05,76.85000000000001,0)" xlink:href="#aA"/></g></defs></g></svg>